<svg width="25" height="35" viewBox="0 0 500 400" fill="none" xmlns="http://www.w3.org/2000/svg">
    <path
        d="M267 -64c-36 0 -65.333 12 -88 36c-24 26 -36 55.333 -36 88c0 34 12 63 36 87c15.333 14.667 33 25 53 31l-22 99h-1h-2c-23.333 0 -43.5 8.333 -60.5 25s-25.5 36.833 -25.5 60.5s8.5 43.833 25.5 60.5s37.333 25 61 25s43.833 -8.333 60.5 -25c16.667 -16.667 25 -36.833 25 -60.5s-8.333 -43.833 -25 -60.5c-6.667 -6.667 -14.667 -12.333 -24 -17l23 -102c34 0 63.167 -12 87.5 -36s36.5 -53 36.5 -87s-12.167 -63.167 -36.5 -87.5c-24.333 -24.333 -53.5 -36.5 -87.5 -36.5zM147 362.5c0 -16.333 5.833 -30.333 17.5 -42s25.833 -17.5 42.5 -17.5s30.833 5.833 42.5 17.5c11.667 11.667 17.5 25.667 17.5 42s-5.833 30.333 -17.5 42c-11.667 11.667 -25.833 17.5 -42.5 17.5s-30.833 -5.833 -42.5 -17.5s-17.5 -25.667 -17.5 -42zM330 -3c17.333 17.333 26 38.167 26 62.5s-8.667 45.167 -26 62.5c-17.333 17.333 -38.333 26 -63 26c-24.667 0 -45.667 -8.667 -63 -26c-17.333 -17.333 -26 -38.167 -26 -62.5s8.667 -45.167 26 -62.5s38.333 -26 63 -26c24.667 0 45.667 8.667 63 26z"
        fill="#C55B28" stroke="#C55B28" stroke-width="1" />
</svg>